<?xml version="1.0" encoding="utf-8"?>
<!-- Generator: Adobe Illustrator 22.1.0, SVG Export Plug-In . SVG Version: 6.00 Build 0)  -->
<svg version="1.1" id="Layer_1" xmlns="http://www.w3.org/2000/svg" xmlns:xlink="http://www.w3.org/1999/xlink" x="0px" y="0px"
	 viewBox="0 0 245 240" style="enable-background:new 0 0 245 240;" xml:space="preserve">
<style type="text/css">
	.st0{fill:#FFFFFF;}
	.st1{fill:#7289DA;}
</style>
<rect x="56.8" y="57.3" class="st0" width="132.5" height="111.5"/>
<path class="st1" d="M104.4,103.9c-5.7,0-10.2,5-10.2,11.1s4.6,11.1,10.2,11.1c5.7,0,10.2-5,10.2-11.1
	C114.7,108.9,110.1,103.9,104.4,103.9z M140.9,103.9c-5.7,0-10.2,5-10.2,11.1s4.6,11.1,10.2,11.1c5.7,0,10.2-5,10.2-11.1
	S146.6,103.9,140.9,103.9z"/>
<g>
	<path class="st1" d="M210,222c-0.5,0-1-0.2-1.3-0.5l-21.5-19L175,191.3l-7.5-7l3.3,11.6c0.2,0.6,0.1,1.3-0.3,1.8
		c-0.4,0.5-1,0.8-1.6,0.8H55.5c-12.4,0-22.5-10.1-22.5-22.6V40.6C33,28.1,43.1,18,55.5,18h134c12.4,0,22.5,10.1,22.5,22.6V220
		c0,0.8-0.5,1.5-1.2,1.8C210.6,221.9,210.3,222,210,222z M147.7,143.5c1.7,2.1,3.3,4,4.1,5c18-0.9,26.1-11.5,27.7-13.7
		c-0.2-29-12.3-53.1-14-56.4c-6.3-4.7-12.5-7.1-17.2-8.4c10.3,4.5,15.3,9.2,15.6,9.4c0.7,0.7,0.8,1.8,0.2,2.6
		c-0.4,0.5-1,0.8-1.6,0.8c-0.3,0-0.7-0.1-1-0.2c-9.2-5-19-8.2-29.4-9.4c-3-0.3-6-0.5-9-0.5c-3.6,0-7.2,0.2-10.7,0.7
		c-0.1,0-0.2,0-0.3,0c-0.4,0-0.7,0.1-1.1,0.1l-0.2,0c-0.1,0-0.1,0-0.2,0c-2.4,0.2-10.9,1.2-22.1,6.1c-3.6,1.6-5.7,2.8-5.7,2.8
		c-0.3,0.2-0.6,0.2-1,0.2c-0.6,0-1.2-0.3-1.6-0.8c-0.6-0.8-0.5-1.9,0.2-2.6c0.2-0.2,3.7-3.4,10.8-7.1c-3.3,1.4-6.9,3.4-10.6,6.1
		c-1.7,3.3-13.8,27.4-14,56.4c1.5,2.3,9.5,12.8,27.6,13.7c0.9-1.1,2.6-3.1,4.3-5.3c-11.2-4.2-15.7-11.4-15.9-11.8
		c-0.5-0.8-0.3-1.8,0.4-2.5c0.4-0.4,0.9-0.5,1.4-0.5c0.4,0,0.8,0.1,1.1,0.4c0,0,1,0.7,2.6,1.6c0.2,0.1,0.3,0.2,0.4,0.3
		c0,0,0.1,0,0.1,0.1c0.1,0.1,0.2,0.1,0.2,0.1c0.2,0.1,0.4,0.2,0.6,0.3c2.1,1.2,4.4,2.2,7,3.3c4.9,1.9,9.6,3.3,14.4,4.2
		c4.3,0.8,8.7,1.2,13,1.2c4.1,0,8.2-0.4,12.2-1.1c4.7-0.8,9.3-2.2,14.1-4.2c3.8-1.4,7.5-3.3,11.2-5.7c0.3-0.2,0.7-0.3,1.1-0.3
		c0.5,0,1,0.2,1.4,0.6c0.7,0.7,0.8,1.7,0.3,2.5C163.9,132,159.3,139.4,147.7,143.5z"/>
	<path class="st0" d="M189.5,20c11.3,0,20.5,9.2,20.5,20.6V220l-21.5-19l-12.1-11.2l-12.8-11.9l5.3,18.5H55.5
		c-11.3,0-20.5-9.2-20.5-20.6V40.6C35,29.2,44.2,20,55.5,20H189.5 M162.5,80.9c-10.4-5.7-20.6-8.5-30.1-9.6
		c-3.2-0.4-6.3-0.5-9.3-0.5c-3.8,0-7.5,0.3-10.9,0.7c-0.6,0-1.1,0.1-1.7,0.2c-3.5,0.3-12,1.6-22.7,6.3c-3.7,1.7-5.9,2.9-5.9,2.9
		s8.3-7.9,26.3-13.1l-1-1.2c0,0,0,0-0.1,0c-1.3,0-14.3,0.3-28,10.5c0,0-14.4,26.1-14.4,58.3c0,0,8.4,14.5,30.5,15.2
		c0,0,3.7-4.5,6.7-8.3c-12.7-3.8-17.5-11.8-17.5-11.8s1,0.7,2.8,1.7c0.1,0.1,0.2,0.2,0.4,0.3c0.3,0.2,0.6,0.3,0.9,0.5
		c2.5,1.4,5,2.5,7.3,3.4c4.1,1.6,9,3.2,14.7,4.3c4.1,0.8,8.6,1.3,13.4,1.3c4,0,8.2-0.3,12.5-1.2c4.7-0.8,9.5-2.2,14.5-4.3
		c3.5-1.3,7.4-3.2,11.5-5.9c0,0-5,8.2-18.1,11.9c3,3.8,6.6,8.1,6.6,8.1c22.1-0.7,30.6-15.2,30.6-15.2c0-32.2-14.4-58.3-14.4-58.3
		c-13.6-10.2-26.7-10.5-28-10.5c-0.1,0-0.1,0-0.1,0l-1.4,1.6C154.6,73.4,162.5,80.9,162.5,80.9 M189.5,16h-134C42,16,31,27,31,40.6
		v135.2c0,13.6,11,24.6,24.5,24.6h113.4c1.3,0,2.4-0.6,3.2-1.6s1-2.3,0.7-3.5l-1.3-4.7l2.3,2.1l12.1,11.2c0,0,0,0,0.1,0.1l21.5,19
		c0.7,0.7,1.7,1,2.6,1c0.6,0,1.1-0.1,1.6-0.4c1.4-0.6,2.4-2.1,2.4-3.6V40.6C214,27,203,16,189.5,16L189.5,16z M89.4,81.6
		c10.9-4.8,19.1-5.8,21.4-6c0.1,0,0.2,0,0.3,0l0.2,0c0.4-0.1,0.6-0.1,0.8-0.1c0.2,0,0.3,0,0.5,0c3.4-0.4,6.9-0.7,10.4-0.7
		c3,0,5.9,0.2,8.8,0.5c10.1,1.2,19.7,4.2,28.6,9.1c0.6,0.3,1.3,0.5,1.9,0.5c1.2,0,2.4-0.6,3.2-1.6c3.8,8.4,11.5,28.1,11.8,50.9
		c-2,2.7-9.4,11.2-24.8,12.3c-0.5-0.6-1.1-1.3-1.7-2.1c10.4-4.5,14.7-11.4,14.9-11.7c1-1.6,0.7-3.7-0.6-5c-0.8-0.7-1.8-1.1-2.8-1.1
		c-0.8,0-1.5,0.2-2.2,0.7c-3.5,2.3-7.1,4.2-10.7,5.5c-0.1,0-0.1,0-0.2,0.1c-4.6,2-9.1,3.3-13.6,4c0,0,0,0-0.1,0
		c-3.9,0.7-7.8,1.1-11.8,1.1c-4.1,0-8.4-0.4-12.6-1.2c-4.6-0.9-9.2-2.2-14-4.1c-2.5-1-4.7-2-6.7-3.1c-0.3-0.2-0.5-0.3-0.7-0.4
		l-0.1,0c-0.2-0.2-0.4-0.3-0.6-0.4c-1.6-0.9-2.4-1.5-2.5-1.5c-0.7-0.5-1.5-0.7-2.3-0.7c-1,0-2,0.4-2.7,1.1c-1.4,1.3-1.7,3.4-0.7,5
		c0.2,0.3,4.3,7,14.4,11.6c-0.7,0.9-1.4,1.7-1.9,2.4c-15.4-1.1-22.7-9.6-24.7-12.3C69,112.3,76.1,93.3,80,84.4
		c0.6,0.3,1.2,0.5,1.9,0.5c0.7,0,1.3-0.2,1.9-0.5C83.8,84.4,85.9,83.3,89.4,81.6L89.4,81.6z"/>
</g>
</svg>
